<?xml version="1.0" encoding="utf-8"?>
<!-- Generator: Moho 12.5 build 22438 -->
<!DOCTYPE svg PUBLIC "-//W3C//DTD SVG 1.1//EN" "http://www.w3.org/Graphics/SVG/1.1/DTD/svg11.dtd">
<svg version="1.1" id="Frame_0" xmlns="http://www.w3.org/2000/svg" xmlns:xlink="http://www.w3.org/1999/xlink" width="1280px" height="720px">
<g id="Layer_8">
<g id="Layer_1">
<path fill="#8e5f31" fill-rule="evenodd" stroke="none" d="M 921.394 388.644 C 920.433 397.618 917.668 409.371 916.071 418.254 C 916.071 418.256 915.263 433.261 916.404 439.547 C 917.272 444.330 921.048 450.038 921.727 454.851 C 923.616 468.255 920.142 486.509 917.402 499.766 C 915.357 509.657 911.707 522.799 907.273 531.874 C 903.765 539.053 893.604 546.023 892.311 553.908 C 892.003 555.788 892.561 558.454 893.400 560.164 C 896.882 567.267 909.307 570.978 912.713 578.118 C 913.672 580.128 914.484 583.342 913.801 585.462 C 912.062 590.863 904.168 594.653 899.384 597.703 C 895.136 600.413 888.933 603.190 884.151 604.776 C 875.157 607.758 862.352 608.546 853.140 610.761 C 845.745 612.538 835.933 615.194 828.770 617.749 C 820.518 620.693 810.022 625.900 801.961 629.333 C 796.065 631.845 788.411 635.784 782.268 637.608 C 768.115 641.809 748.393 644.136 733.690 645.477 C 722.463 646.501 707.388 646.833 696.122 646.414 C 688.575 646.133 678.478 645.465 671.062 644.036 C 665.060 642.880 657.462 639.673 651.490 638.366 C 644.121 636.753 634.097 635.655 626.614 634.708 C 612.852 632.965 594.474 630.688 580.623 629.937 C 557.942 628.707 527.601 630.949 504.910 629.937 C 485.393 629.066 459.143 628.314 440.040 624.224 C 426.820 621.393 408.944 616.756 397.338 609.821 C 390.794 605.911 380.880 600.097 378.388 592.892 C 377.192 589.435 378.027 584.042 379.651 580.764 C 380.698 578.651 384.205 577.339 385.210 575.205 C 386.281 572.933 386.212 569.367 385.968 566.867 C 384.969 556.631 377.653 544.346 374.598 534.525 C 371.312 523.961 366.454 509.892 364.956 498.931 C 362.991 484.562 364.688 465.089 364.956 450.589 C 365.148 440.172 367.523 426.216 366.195 415.882 C 366.065 414.868 365.720 413.537 365.369 412.577 C 363.823 408.360 359.618 403.662 358.345 399.355 C 356.092 391.733 356.256 380.848 356.692 372.912 C 357.135 364.849 359.310 354.218 361.317 346.396 C 363.458 338.051 368.223 327.504 370.641 319.235 C 373.555 309.269 375.417 295.422 378.749 285.588 C 381.748 276.734 386.224 264.914 391.313 257.072 C 397.491 247.551 409.221 237.560 416.896 229.198 C 416.914 229.197 540.876 222.605 594.068 221.943 C 631.216 221.481 680.965 219.620 717.893 223.689 C 764.674 228.845 825.296 246.586 871.326 256.399 C 875.053 263.265 880.518 272.173 883.747 279.286 C 886.231 284.757 889.318 292.209 890.779 298.037 C 892.044 303.085 891.858 310.177 893.123 315.225 C 894.429 320.440 896.310 327.603 899.373 332.022 C 900.743 333.998 903.683 335.652 905.232 337.491 C 909.233 342.242 913.616 349.408 916.170 355.070 C 918.686 360.646 921.316 368.526 922.030 374.601 C 922.521 378.790 921.843 384.451 921.394 388.644 M 871.326 256.399 C 871.326 256.399 871.326 256.399 871.326 256.399 Z"/>
<path fill="none" stroke="#8e5f31" stroke-width="1" stroke-linecap="round" stroke-linejoin="round" d="M 916.071 418.254 C 916.071 418.254 916.071 418.254 916.071 418.254 C 917.668 409.371 920.433 397.618 921.394 388.644 C 921.843 384.451 922.521 378.790 922.030 374.601 C 921.316 368.526 918.686 360.646 916.170 355.070 C 913.616 349.408 909.233 342.242 905.232 337.491 C 903.683 335.652 900.743 333.998 899.373 332.022 C 896.310 327.603 894.429 320.440 893.123 315.225 C 891.858 310.177 892.044 303.085 890.779 298.037 C 889.318 292.209 886.231 284.757 883.747 279.286 C 880.518 272.173 875.053 263.265 871.326 256.399 C 871.326 256.399 871.326 256.399 871.326 256.399 C 825.296 246.586 764.674 228.845 717.893 223.689 C 680.965 219.620 631.216 221.481 594.068 221.943 C 540.876 222.605 416.914 229.197 416.896 229.198 C 416.896 229.198 416.896 229.198 416.896 229.198 C 409.221 237.560 397.491 247.551 391.313 257.072 C 386.224 264.914 381.748 276.734 378.749 285.588 C 375.417 295.422 373.555 309.269 370.641 319.235 C 368.223 327.504 363.458 338.051 361.317 346.396 C 359.310 354.218 357.135 364.849 356.692 372.912 C 356.256 380.848 356.092 391.733 358.345 399.355 C 359.618 403.662 363.823 408.360 365.369 412.577 C 365.720 413.537 366.065 414.868 366.195 415.882 C 367.523 426.216 365.148 440.172 364.956 450.589 C 364.688 465.089 362.991 484.562 364.956 498.931 C 366.454 509.892 371.312 523.961 374.598 534.525 C 377.653 544.346 384.969 556.631 385.968 566.867 C 386.212 569.367 386.281 572.933 385.210 575.205 C 384.205 577.339 380.698 578.651 379.651 580.764 C 378.027 584.042 377.192 589.435 378.388 592.892 C 380.880 600.097 390.794 605.911 397.338 609.821 C 408.944 616.756 426.820 621.393 440.040 624.224 C 459.143 628.314 485.393 629.066 504.910 629.937 C 527.601 630.949 557.942 628.707 580.623 629.937 C 594.474 630.688 612.852 632.965 626.614 634.708 C 634.097 635.655 644.121 636.753 651.490 638.366 C 657.462 639.673 665.060 642.880 671.062 644.036 C 678.478 645.465 688.575 646.133 696.122 646.414 C 707.388 646.833 722.463 646.501 733.690 645.477 C 748.393 644.136 768.115 641.809 782.268 637.608 C 788.411 635.784 796.065 631.845 801.961 629.333 C 810.022 625.900 820.518 620.693 828.770 617.749 C 835.933 615.194 845.745 612.538 853.140 610.761 C 862.352 608.546 875.157 607.758 884.151 604.776 C 888.933 603.190 895.136 600.413 899.384 597.703 C 904.168 594.653 912.062 590.863 913.801 585.462 C 914.484 583.342 913.672 580.128 912.713 578.118 C 909.307 570.978 896.882 567.267 893.400 560.164 C 892.561 558.454 892.003 555.788 892.311 553.908 C 893.604 546.023 903.765 539.053 907.273 531.874 C 911.707 522.799 915.357 509.657 917.402 499.766 C 920.142 486.509 923.616 468.255 921.727 454.851 C 921.048 450.038 917.272 444.330 916.404 439.547 C 915.263 433.261 916.071 418.256 916.071 418.254 "/>
</g>
<g id="Layer_3">
<path fill="#9c6934" fill-rule="evenodd" stroke="#9c6934" stroke-width="1" stroke-linecap="round" stroke-linejoin="round" d="M 460.269 527.970 C 458.313 524.361 455.413 519.564 452.396 516.782 C 447.833 512.575 439.100 510.643 434.376 506.617 C 429.385 502.366 423.502 495.470 420.789 489.502 C 418.469 484.399 417.997 476.709 417.260 471.152 C 416.612 466.258 414.044 459.264 416.025 454.742 C 417.623 451.097 422.718 448.132 426.240 446.278 C 434.622 441.868 450.012 445.287 456.910 438.798 C 457.314 438.418 457.618 437.688 457.737 437.148 C 459.542 428.992 455.262 417.811 453.913 409.568 C 451.788 396.594 447.148 379.591 445.677 366.527 C 444.121 352.708 442.762 334.043 444.087 320.199 C 445.051 310.129 447.947 296.796 451.354 287.270 C 454.612 278.162 460.665 266.625 465.917 258.501 C 469.966 252.237 475.518 243.620 481.429 239.072 C 485.888 235.641 493.071 232.802 498.489 231.288 C 536.296 220.730 589.926 220.655 629.090 223.309 C 656.019 225.134 691.406 233.105 717.490 240.046 C 752.126 249.264 796.408 267.723 830.231 279.584 C 830.231 279.584 830.231 279.584 830.231 279.584 C 831.830 282.165 834.294 285.429 835.563 288.188 C 839.469 296.682 842.111 309.020 844.145 318.145 C 846.136 327.078 848.253 339.142 849.003 348.263 C 849.826 358.280 850.195 371.776 849.088 381.766 C 848.318 388.726 844.648 397.588 844.100 404.569 C 843.796 408.452 843.984 413.705 844.671 417.538 C 846.718 428.971 854.548 442.825 857.592 454.034 C 858.994 459.199 861.512 466.177 861.141 471.516 C 860.664 478.381 856.948 487.263 853.203 493.036 C 850.943 496.521 844.903 499.004 843.502 502.914 C 842.536 505.608 843.192 509.703 844.031 512.440 C 845.536 517.352 850.875 522.315 853.259 526.866 C 854.169 528.605 855.769 530.905 855.867 532.865 C 856.005 535.596 854.730 539.470 852.868 541.472 C 848.831 545.812 840.004 546.706 834.219 547.993 C 827.580 549.469 817.457 546.657 811.658 550.210 C 808.937 551.877 806.941 556.010 805.359 558.781 C 803.039 562.843 801.699 569.123 799.361 573.175 C 796.704 577.780 790.319 582.208 788.565 587.227 C 787.716 589.658 787.302 593.331 788.051 595.795 C 788.587 597.556 791.583 598.925 791.650 600.764 C 791.744 603.387 788.609 606.182 786.680 607.962 C 779.702 614.401 767.233 618.688 758.405 622.185 C 740.243 629.380 715.165 637.853 695.734 639.872 C 679.081 641.602 656.641 638.505 640.035 636.370 C 639.225 636.266 637.984 636.421 637.354 635.902 C 633.791 632.964 638.076 623.964 634.786 620.723 C 631.059 617.052 622.611 619.527 617.505 618.388 C 612.705 617.317 605.444 616.852 601.860 613.484 C 600.284 612.003 599.324 609.050 598.824 606.946 C 598.419 605.240 599.184 602.757 598.591 601.107 C 595.070 591.314 583.040 582.208 574.772 575.888 C 572.676 574.286 569.713 572.171 567.169 571.475 C 561.109 569.818 552.435 571.235 546.245 572.304 C 533.656 574.478 518.183 582.452 505.846 585.770 C 500.137 587.306 492.184 591.796 486.579 589.914 C 486.119 589.759 485.682 589.218 485.336 588.878 C 478.528 582.179 468.973 572.894 465.448 564.017 C 464.682 562.089 463.207 558.869 464.412 557.181 C 465.552 555.583 468.908 556.311 470.834 555.938 C 470.834 555.938 464.542 535.855 460.269 527.970 Z"/>
</g>
<g id="Layer_4">
<path fill="#a87138" fill-rule="evenodd" stroke="none" d="M 567.482 257.837 C 566.099 252.666 562.808 246.254 560.805 241.290 C 560.811 241.289 599.552 229.566 616.712 227.707 C 635.923 225.625 662.078 225.968 681.104 229.347 C 707.541 234.042 740.325 249.799 765.594 258.878 C 781.706 264.666 806.447 267.117 819.147 278.599 C 821.604 280.820 823.171 285.198 824.896 288.027 C 824.389 303.480 824.396 324.122 823.207 339.538 C 822.300 351.291 819.981 366.853 818.545 378.552 C 817.240 389.189 814.827 403.304 814.084 413.995 C 813.248 426.012 813.471 442.101 813.588 454.147 C 813.690 464.631 816.715 478.794 814.679 489.079 C 812.642 499.365 806.978 512.831 800.358 520.962 C 790.350 533.255 771.281 544.383 756.856 550.954 C 747.605 555.169 734.329 559.826 724.162 559.871 C 704.341 559.958 677.793 551.115 660.936 540.687 C 652.698 535.591 641.936 526.828 637.969 517.990 C 635.923 513.432 638.208 506.047 636.331 501.417 C 631.868 490.407 617.502 481.044 610.086 471.763 C 598.873 457.732 583.463 439.031 575.319 423.022 C 567.740 408.121 560.550 386.645 557.595 370.191 C 555.069 356.121 554.408 336.793 555.870 322.573 C 556.739 314.125 559.591 303.058 562.257 294.995 C 564.131 289.327 569.306 282.623 570.095 276.706 C 570.849 271.041 568.959 263.357 567.482 257.837 M 824.896 288.027 C 824.896 288.027 824.896 288.027 824.896 288.027 Z"/>
<path fill="none" stroke="#a87138" stroke-width="1" stroke-linecap="round" stroke-linejoin="round" d="M 560.805 241.290 C 560.805 241.290 560.805 241.290 560.805 241.290 C 562.808 246.254 566.099 252.666 567.482 257.837 C 568.959 263.357 570.849 271.041 570.095 276.706 C 569.306 282.623 564.131 289.327 562.257 294.995 C 559.591 303.058 556.739 314.125 555.870 322.573 C 554.408 336.793 555.069 356.121 557.595 370.191 C 560.550 386.645 567.740 408.121 575.319 423.022 C 583.463 439.031 598.873 457.732 610.086 471.763 C 617.502 481.044 631.868 490.407 636.331 501.417 C 638.208 506.047 635.923 513.432 637.969 517.990 C 641.936 526.828 652.698 535.591 660.936 540.687 C 677.793 551.115 704.341 559.958 724.162 559.871 C 734.329 559.826 747.605 555.169 756.856 550.954 C 771.281 544.383 790.350 533.255 800.358 520.962 C 806.978 512.831 812.642 499.365 814.679 489.079 C 816.715 478.794 813.690 464.631 813.588 454.147 C 813.471 442.101 813.248 426.012 814.084 413.995 C 814.827 403.304 817.240 389.189 818.545 378.552 C 819.981 366.853 822.300 351.291 823.207 339.538 C 824.396 324.122 824.389 303.480 824.896 288.027 C 824.896 288.027 824.896 288.027 824.896 288.027 C 823.171 285.198 821.604 280.820 819.147 278.599 C 806.447 267.117 781.706 264.666 765.594 258.878 C 740.325 249.799 707.541 234.042 681.104 229.347 C 662.078 225.968 635.923 225.625 616.712 227.707 C 599.552 229.566 560.811 241.289 560.805 241.290 "/>
</g>
<g id="Layer_5">
<path fill="#84572d" fill-rule="evenodd" stroke="none" d="M 820.110 291.395 C 817.642 292.404 814.458 293.996 812.036 295.111 C 812.036 295.113 813.496 309.023 813.665 315.011 C 813.825 320.667 813.953 328.257 813.200 333.864 C 813.133 334.360 813.232 335.170 812.850 335.493 C 812.344 335.922 811.183 335.873 810.639 335.493 C 808.129 333.741 809.748 328.406 809.359 325.369 C 808.773 320.794 809.150 314.382 807.381 310.123 C 806.231 307.357 803.565 304.210 801.446 302.093 C 798.223 298.876 793.209 295.232 789.109 293.249 C 784.701 291.117 778.153 289.998 773.406 288.794 C 769.889 287.901 764.990 287.444 761.608 286.129 C 758.486 284.916 755.135 281.486 751.902 280.611 C 749.146 279.864 745.156 279.725 742.387 280.420 C 735.919 282.043 728.393 287.638 723.547 292.219 C 719.115 296.409 714.696 303.437 711.748 308.776 C 709.682 312.516 707.885 317.967 706.229 321.907 C 706.229 321.905 703.801 311.846 703.375 307.444 C 702.757 301.079 702.033 292.338 703.565 286.129 C 704.598 281.937 708.010 277.089 709.916 273.214 C 709.916 273.214 709.332 271.196 708.774 270.517 C 706.088 267.243 699.998 265.952 696.430 263.671 C 692.398 261.092 686.925 257.643 683.568 254.231 C 681.372 251.999 679.770 247.865 677.420 245.794 C 675.656 244.239 672.863 242.573 670.602 241.926 C 665.435 240.449 658.040 241.429 652.689 241.926 C 649.725 242.202 645.848 243.128 642.919 243.657 C 626.936 246.543 605.551 250.035 589.688 253.516 C 586.077 254.308 581.401 256.075 577.725 256.462 C 572.646 256.997 565.819 255.976 560.716 255.768 C 560.715 255.768 555.365 258.872 553.600 260.801 C 548.253 266.642 544.265 276.832 541.450 284.233 C 539.479 289.415 538.169 296.747 536.764 302.110 C 536.763 302.110 534.820 303.325 533.987 303.845 C 533.987 303.844 533.138 291.453 532.772 286.142 C 532.254 278.643 531.557 268.646 531.036 261.148 C 531.035 261.148 522.402 259.571 518.946 258.151 C 513.969 256.105 508.345 251.412 503.636 248.809 C 499.751 246.662 494.722 243.209 490.402 242.192 C 487.143 241.425 482.533 241.439 479.243 242.062 C 474.674 242.928 468.985 245.762 464.961 248.094 C 459.956 250.993 453.380 255.407 449.685 259.856 C 445.010 265.485 442.173 275.188 438.839 281.701 C 438.380 282.598 438.152 284.168 437.281 284.675 C 437.043 284.814 436.613 284.881 436.366 284.759 C 433.538 283.362 433.881 277.795 433.368 274.683 C 432.335 268.422 433.077 259.878 432.952 253.533 C 432.951 253.533 423.793 254.049 419.962 254.866 C 414.508 256.027 407.120 257.919 402.350 260.807 C 393.972 265.880 386.256 277.031 379.358 283.984 C 379.358 283.983 381.454 277.861 382.524 275.304 C 384.781 269.906 387.334 262.298 391.000 257.739 C 394.501 253.385 401.232 249.664 405.618 246.204 C 405.625 246.201 458.490 223.280 482.668 219.639 C 545.222 210.218 630.913 222.222 693.032 234.182 C 720.241 239.421 754.000 257.065 781.439 260.927 C 802.087 263.833 830.092 260.727 850.942 260.538 C 857.708 260.477 873.496 260.272 873.496 260.272 C 873.316 261.831 873.728 264.073 873.041 265.485 C 869.901 271.941 860.134 276.332 853.804 279.719 C 844.371 284.766 830.011 287.344 820.110 291.395 Z"/>
<path fill="none" stroke="#84572d" stroke-width="1" stroke-linecap="round" stroke-linejoin="round" d="M 812.036 295.111 C 812.036 295.111 812.036 295.111 812.036 295.111 C 814.458 293.996 817.642 292.404 820.110 291.395 C 830.011 287.344 844.371 284.766 853.804 279.719 C 860.134 276.332 869.901 271.941 873.041 265.485 C 873.728 264.073 873.316 261.831 873.496 260.272 C 873.496 260.272 857.708 260.477 850.942 260.538 C 830.092 260.727 802.087 263.833 781.439 260.927 C 754.000 257.065 720.241 239.421 693.032 234.182 C 630.913 222.222 545.222 210.218 482.668 219.639 C 458.490 223.280 405.625 246.201 405.618 246.204 C 405.618 246.204 405.618 246.204 405.618 246.204 C 401.232 249.664 394.501 253.385 391.000 257.739 C 387.334 262.298 384.781 269.906 382.524 275.304 C 381.454 277.861 379.358 283.983 379.358 283.984 C 379.358 283.984 379.358 283.984 379.358 283.984 C 386.256 277.031 393.972 265.880 402.350 260.807 C 407.120 257.919 414.508 256.027 419.962 254.866 C 423.793 254.049 432.951 253.533 432.952 253.533 C 432.952 253.533 432.952 253.533 432.952 253.533 C 433.077 259.878 432.335 268.422 433.368 274.683 C 433.881 277.795 433.538 283.362 436.366 284.759 C 436.613 284.881 437.043 284.814 437.281 284.675 C 438.152 284.168 438.380 282.598 438.839 281.701 C 442.173 275.188 445.010 265.485 449.685 259.856 C 453.380 255.407 459.956 250.993 464.961 248.094 C 468.985 245.762 474.674 242.928 479.243 242.062 C 482.533 241.439 487.143 241.425 490.402 242.192 C 494.722 243.209 499.751 246.662 503.636 248.809 C 508.345 251.412 513.969 256.105 518.946 258.151 C 522.402 259.571 531.035 261.148 531.036 261.148 C 531.036 261.148 531.036 261.148 531.036 261.148 C 531.557 268.646 532.254 278.643 532.772 286.142 C 533.138 291.453 533.987 303.844 533.987 303.845 C 533.987 303.845 533.987 303.845 533.987 303.845 C 534.820 303.325 536.763 302.110 536.764 302.110 C 536.764 302.110 536.764 302.110 536.764 302.110 C 538.169 296.747 539.479 289.415 541.450 284.233 C 544.265 276.832 548.253 266.642 553.600 260.801 C 555.365 258.872 560.715 255.768 560.716 255.768 C 560.716 255.768 560.716 255.768 560.716 255.768 C 565.819 255.976 572.646 256.997 577.725 256.462 C 581.401 256.075 586.077 254.308 589.688 253.516 C 605.551 250.035 626.936 246.543 642.919 243.657 C 645.848 243.128 649.725 242.202 652.689 241.926 C 658.040 241.429 665.435 240.449 670.602 241.926 C 672.863 242.573 675.656 244.239 677.420 245.794 C 679.770 247.865 681.372 251.999 683.568 254.231 C 686.925 257.643 692.398 261.092 696.430 263.671 C 699.998 265.952 706.088 267.243 708.774 270.517 C 709.332 271.196 709.916 273.214 709.916 273.214 C 709.916 273.214 709.916 273.214 709.916 273.214 C 708.010 277.089 704.598 281.937 703.565 286.129 C 702.033 292.338 702.757 301.079 703.375 307.444 C 703.801 311.846 706.229 321.905 706.229 321.907 C 706.229 321.907 706.229 321.907 706.229 321.907 C 707.885 317.967 709.682 312.516 711.748 308.776 C 714.696 303.437 719.115 296.409 723.547 292.219 C 728.393 287.638 735.919 282.043 742.387 280.420 C 745.156 279.725 749.146 279.864 751.902 280.611 C 755.135 281.486 758.486 284.916 761.608 286.129 C 764.990 287.444 769.889 287.901 773.406 288.794 C 778.153 289.998 784.701 291.117 789.109 293.249 C 793.209 295.232 798.223 298.876 801.446 302.093 C 803.565 304.210 806.231 307.357 807.381 310.123 C 809.150 314.382 808.773 320.794 809.359 325.369 C 809.748 328.406 808.129 333.741 810.639 335.493 C 811.183 335.873 812.344 335.922 812.850 335.493 C 813.232 335.170 813.133 334.360 813.200 333.864 C 813.953 328.257 813.825 320.667 813.665 315.011 C 813.496 309.023 812.036 295.113 812.036 295.111 "/>
</g>
<g id="Layer_6">
<path fill="#9c6934" fill-rule="evenodd" stroke="#9c6934" stroke-width="1" stroke-linecap="round" stroke-linejoin="round" d="M 368.101 188.842 C 365.126 190.904 365.637 196.965 365.236 200.563 C 364.224 209.658 364.622 222.091 366.539 231.039 C 367.518 235.609 369.354 241.780 372.008 245.627 C 374.555 249.318 379.018 253.930 383.209 255.525 C 388.468 257.526 396.421 256.233 401.964 255.264 C 414.045 253.152 428.536 244.559 440.254 240.938 C 446.647 238.963 455.227 236.227 461.875 235.468 C 468.941 234.660 478.737 234.041 485.578 235.989 C 490.593 237.417 495.955 242.392 500.686 244.584 C 505.217 246.684 511.419 249.330 516.315 250.315 C 531.714 253.414 553.002 251.935 568.671 250.836 C 585.339 249.668 607.235 245.108 623.732 242.461 C 631.726 241.179 642.283 238.705 650.348 237.998 C 658.605 237.274 670.615 233.956 677.977 237.766 C 681.986 239.841 684.426 246.096 687.264 249.607 C 690.342 253.415 693.779 259.228 697.712 262.144 C 700.944 264.542 706.049 266.816 710.018 267.485 C 715.813 268.461 723.727 264.636 729.520 265.627 C 734.805 266.531 740.809 271.031 745.773 273.057 C 753.646 276.271 764.289 280.265 772.473 282.576 C 776.808 283.801 782.639 285.626 787.141 285.792 C 791.344 285.947 796.832 284.165 801.026 283.839 C 805.309 283.507 811.048 283.654 815.345 283.623 C 817.818 283.605 821.151 284.042 823.589 283.623 C 830.068 282.508 837.960 278.235 843.982 275.595 C 851.074 272.487 860.150 267.525 867.196 264.314 C 871.707 262.258 877.702 259.437 882.383 257.805 C 890.835 254.860 902.849 253.335 911.237 250.212 C 912.984 249.562 915.537 248.903 916.878 247.609 C 919.393 245.181 920.949 240.403 921.651 236.978 C 922.709 231.810 922.010 224.583 921.000 219.405 C 917.607 202.013 907.237 180.244 898.733 164.698 C 892.709 153.685 884.643 138.201 874.865 130.328 C 870.040 126.442 862.106 123.204 856.088 121.735 C 844.769 118.972 828.820 122.256 817.262 120.780 C 806.373 119.390 792.138 115.644 781.619 112.506 C 765.957 107.833 746.207 98.234 730.572 93.474 C 714.451 88.567 692.670 82.386 675.929 80.464 C 658.867 78.506 635.809 79.497 618.684 80.789 C 604.763 81.840 586.533 86.275 572.616 87.381 C 558.528 88.500 539.615 87.201 525.514 88.146 C 516.399 88.757 504.070 89.176 495.261 91.593 C 474.845 97.195 449.994 111.590 431.691 122.229 C 421.251 128.297 407.773 137.239 398.375 144.823 C 391.491 150.378 382.032 157.840 376.940 165.074 C 373.983 169.274 368.874 175.552 369.750 180.613 C 370.372 184.206 375.433 186.945 377.868 189.659 C 377.868 189.659 377.868 189.659 377.868 189.659 C 377.907 189.726 370.518 187.167 368.101 188.842 Z"/>
<path fill="#64421f" fill-rule="evenodd" stroke="none" d="M 850.302 160.726 C 854.940 162.929 859.730 168.121 863.771 171.290 C 863.764 171.295 822.835 213.413 799.594 220.149 C 778.448 226.278 748.227 217.485 726.437 214.339 C 710.021 211.969 688.668 205.788 672.294 203.140 C 639.981 197.913 596.438 194.173 563.850 191.091 C 539.885 188.824 507.903 185.928 483.859 184.766 C 462.271 183.722 433.435 183.839 411.825 183.441 C 419.946 177.466 430.410 168.971 438.894 163.525 C 450.367 156.159 466.265 147.184 478.709 141.611 C 486.167 138.271 496.390 134.299 504.326 132.352 C 512.402 130.370 523.505 129.285 531.796 128.648 C 548.599 127.357 571.182 129.524 587.969 128.031 C 591.699 127.699 596.609 126.720 600.315 126.179 C 613.454 124.261 630.869 120.375 644.142 120.006 C 657.975 119.622 676.451 121.663 690.101 123.937 C 703.816 126.223 721.787 131.053 735.065 135.178 C 747.364 138.999 762.933 146.553 775.296 150.162 C 783.785 152.640 795.310 155.394 804.083 156.500 C 813.836 157.730 827.098 156.187 836.832 157.557 C 840.943 158.135 846.552 158.945 850.302 160.726 M 411.825 183.441 C 411.825 183.441 411.825 183.441 411.825 183.441 Z"/>
<path fill="none" stroke="#64421f" stroke-width="1" stroke-linecap="round" stroke-linejoin="round" d="M 863.771 171.290 C 863.771 171.290 863.771 171.290 863.771 171.290 C 859.730 168.121 854.940 162.929 850.302 160.726 C 846.552 158.945 840.943 158.135 836.832 157.557 C 827.098 156.187 813.836 157.730 804.083 156.500 C 795.310 155.394 783.785 152.640 775.296 150.162 C 762.933 146.553 747.364 138.999 735.065 135.178 C 721.787 131.053 703.816 126.223 690.101 123.937 C 676.451 121.663 657.975 119.622 644.142 120.006 C 630.869 120.375 613.454 124.261 600.315 126.179 C 596.609 126.720 591.699 127.699 587.969 128.031 C 571.182 129.524 548.599 127.357 531.796 128.648 C 523.505 129.285 512.402 130.370 504.326 132.352 C 496.390 134.299 486.167 138.271 478.709 141.611 C 466.265 147.184 450.367 156.159 438.894 163.525 C 430.410 168.971 419.946 177.466 411.825 183.441 C 411.825 183.441 411.825 183.441 411.825 183.441 C 433.435 183.839 462.271 183.722 483.859 184.766 C 507.903 185.928 539.885 188.824 563.850 191.091 C 596.438 194.173 639.981 197.913 672.294 203.140 C 688.668 205.788 710.021 211.969 726.437 214.339 C 748.227 217.485 778.448 226.278 799.594 220.149 C 822.835 213.413 863.764 171.295 863.771 171.290 "/>
</g>
<g id="Layer_7">
<path fill="#a87138" fill-rule="evenodd" stroke="none" d="M 746.939 243.627 C 737.082 239.568 726.607 229.298 717.894 223.157 C 717.893 223.157 714.134 220.938 712.361 220.390 C 707.737 218.962 701.153 218.875 696.317 218.731 C 685.766 218.415 671.723 221.277 661.185 220.667 C 649.921 220.015 635.236 216.214 624.131 214.220 C 612.669 212.162 597.461 208.998 585.963 207.152 C 568.079 204.281 544.147 200.914 526.121 199.142 C 518.929 198.434 509.316 197.536 502.089 197.492 C 490.384 197.422 474.830 199.202 463.147 199.934 C 463.144 199.935 440.471 203.209 430.785 204.814 C 419.274 206.722 404.183 211.820 392.516 211.749 C 387.753 211.720 380.768 211.887 376.848 209.181 C 372.617 206.259 369.095 199.375 368.372 194.284 C 367.706 189.583 369.888 183.141 371.968 178.873 C 374.773 173.117 380.662 166.534 385.581 162.435 C 388.393 160.092 392.469 156.630 396.112 156.271 C 398.682 156.018 402.675 156.856 404.330 158.840 C 407.591 162.745 402.105 171.504 404.844 175.791 C 407.053 179.248 412.977 181.068 416.916 182.212 C 420.701 183.312 426.075 183.101 430.015 183.240 C 456.819 184.183 492.690 178.699 519.396 181.185 C 525.716 181.773 533.883 184.420 540.200 185.037 C 545.875 185.592 553.508 185.069 559.206 185.295 C 578.540 186.059 604.294 187.894 623.536 189.928 C 638.208 191.480 657.672 194.410 672.256 196.648 C 686.605 198.850 705.652 202.308 719.968 204.712 C 729.490 206.311 742.077 209.386 751.712 210.011 C 764.106 210.816 781.116 211.654 793.080 208.316 C 802.987 205.551 814.318 197.127 823.258 192.040 C 831.380 187.419 841.754 180.468 849.981 176.037 C 857.134 172.185 866.815 167.256 874.369 164.264 C 875.853 163.676 877.901 163.086 879.415 162.582 C 878.837 168.048 877.960 175.326 877.487 180.802 C 876.789 188.895 876.644 199.750 875.725 207.821 C 875.295 211.602 875.279 216.861 873.767 220.352 C 871.791 224.914 867.235 230.122 863.390 233.274 C 856.607 238.837 845.561 243.730 837.119 246.117 C 822.224 250.328 801.129 250.718 785.667 249.989 C 773.906 249.435 757.826 248.111 746.939 243.627 M 879.415 162.582 C 879.415 162.582 879.415 162.582 879.415 162.582 Z"/>
<path fill="none" stroke="#a87138" stroke-width="1" stroke-linecap="round" stroke-linejoin="round" d="M 717.894 223.157 C 717.894 223.157 717.894 223.157 717.894 223.157 C 726.607 229.298 737.082 239.568 746.939 243.627 C 757.826 248.111 773.906 249.435 785.667 249.989 C 801.129 250.718 822.224 250.328 837.119 246.117 C 845.561 243.730 856.607 238.837 863.390 233.274 C 867.235 230.122 871.791 224.914 873.767 220.352 C 875.279 216.861 875.295 211.602 875.725 207.821 C 876.644 199.750 876.789 188.895 877.487 180.802 C 877.960 175.326 878.837 168.048 879.415 162.582 C 879.415 162.582 879.415 162.582 879.415 162.582 C 877.901 163.086 875.853 163.676 874.369 164.264 C 866.815 167.256 857.134 172.185 849.981 176.037 C 841.754 180.468 831.380 187.419 823.258 192.040 C 814.318 197.127 802.987 205.551 793.080 208.316 C 781.116 211.654 764.106 210.816 751.712 210.011 C 742.077 209.386 729.490 206.311 719.968 204.712 C 705.652 202.308 686.605 198.850 672.256 196.648 C 657.672 194.410 638.208 191.480 623.536 189.928 C 604.294 187.894 578.540 186.059 559.206 185.295 C 553.508 185.069 545.875 185.592 540.200 185.037 C 533.883 184.420 525.716 181.773 519.396 181.185 C 492.690 178.699 456.819 184.183 430.015 183.240 C 426.075 183.101 420.701 183.312 416.916 182.212 C 412.977 181.068 407.053 179.248 404.844 175.791 C 402.105 171.504 407.591 162.745 404.330 158.840 C 402.675 156.856 398.682 156.018 396.112 156.271 C 392.469 156.630 388.393 160.092 385.581 162.435 C 380.662 166.534 374.773 173.117 371.968 178.873 C 369.888 183.141 367.706 189.583 368.372 194.284 C 369.095 199.375 372.617 206.259 376.848 209.181 C 380.768 211.887 387.753 211.720 392.516 211.749 C 404.183 211.820 419.274 206.722 430.785 204.814 C 440.471 203.209 463.144 199.935 463.147 199.934 C 463.147 199.934 463.147 199.934 463.147 199.934 C 474.830 199.202 490.384 197.422 502.089 197.492 C 509.316 197.536 518.929 198.434 526.121 199.142 C 544.147 200.914 568.079 204.281 585.963 207.152 C 597.461 208.998 612.669 212.162 624.131 214.220 C 635.236 216.214 649.921 220.015 661.185 220.667 C 671.723 221.277 685.766 218.415 696.317 218.731 C 701.153 218.875 707.737 218.962 712.361 220.390 C 714.134 220.938 717.893 223.157 717.894 223.157 "/>
<path fill="#815629" fill-rule="evenodd" stroke="none" d="M 905.324 337.552 C 905.324 337.552 905.324 337.552 905.324 337.552 C 903.076 335.089 899.572 332.185 897.831 329.340 C 896.686 327.468 895.982 324.565 895.159 322.531 C 895.159 322.531 889.505 333.329 887.443 338.124 C 881.930 350.942 878.040 369.438 871.840 381.937 C 868.506 388.659 858.445 403.054 858.444 403.056 C 866.009 395.538 877.017 386.341 883.660 377.997 C 889.715 370.392 896.716 359.324 900.829 350.516 C 902.571 346.787 905.324 337.554 905.324 337.552 C 905.324 337.552 905.324 337.552 905.324 337.552 Z"/>
<path fill="none" stroke="#815629" stroke-width="1" stroke-linecap="round" stroke-linejoin="round" d="M 858.444 403.056 C 858.444 403.056 858.444 403.056 858.444 403.056 C 858.445 403.054 868.506 388.659 871.840 381.937 C 878.040 369.438 881.930 350.942 887.443 338.124 C 889.505 333.329 895.159 322.531 895.159 322.531 C 895.982 324.565 896.686 327.468 897.831 329.340 C 899.572 332.185 903.076 335.089 905.324 337.552 C 905.324 337.552 905.324 337.552 905.324 337.552 C 905.324 337.554 902.571 346.787 900.829 350.516 C 896.716 359.324 889.715 370.392 883.660 377.997 C 877.017 386.341 866.009 395.538 858.444 403.056 M 905.324 337.552 C 905.324 337.552 905.324 337.552 905.324 337.552 "/>
<path fill="#815629" fill-rule="evenodd" stroke="#815629" stroke-width="1" stroke-linecap="round" stroke-linejoin="round" d="M 919.892 448.947 C 919.892 448.947 919.892 448.947 919.892 448.947 C 918.812 445.594 916.871 441.244 916.290 437.769 C 915.422 432.575 916.148 425.483 916.161 420.218 C 916.161 420.218 908.364 429.542 904.957 433.483 C 900.898 438.178 895.135 444.139 891.240 448.972 C 885.678 455.872 878.098 465.080 873.870 472.869 C 870.179 479.668 866.093 489.334 864.552 496.915 C 863.055 504.279 862.755 514.500 863.740 521.949 C 864.046 524.262 864.113 527.814 865.769 529.459 C 866.203 529.889 867.077 530.372 867.664 530.203 C 869.277 529.737 869.687 526.805 870.167 525.196 C 871.333 521.293 870.914 515.719 871.317 511.665 C 871.714 507.670 871.994 502.296 872.830 498.370 C 873.782 493.899 875.244 487.850 877.463 483.853 C 880.539 478.313 886.475 471.982 891.362 467.947 C 896.019 464.101 903.761 461.198 908.740 457.778 C 912.257 455.361 919.891 448.948 919.892 448.947 C 919.892 448.947 919.892 448.947 919.892 448.947 Z"/>
<path fill="#815629" fill-rule="evenodd" stroke="#815629" stroke-width="1" stroke-linecap="round" stroke-linejoin="round" d="M 903.578 569.412 C 903.578 569.412 903.578 569.412 903.578 569.412 C 901.048 567.390 897.221 565.158 895.144 562.673 C 894.286 561.646 893.319 560.087 892.900 558.816 C 892.900 558.816 886.167 559.815 883.444 560.809 C 877.819 562.860 871.658 568.493 866.056 570.607 C 857.443 573.856 845.135 575.914 835.950 576.545 C 825.681 577.251 811.812 576.404 801.701 574.474 C 795.472 573.284 787.660 569.779 781.538 568.121 C 779.977 567.698 777.561 565.876 776.291 566.878 C 775.152 567.777 775.565 570.385 776.153 571.712 C 778.016 575.913 784.570 578.618 788.858 580.274 C 797.235 583.509 809.634 583.159 818.601 583.634 C 825.863 584.020 835.583 583.979 842.842 583.537 C 852.581 582.943 865.565 581.548 875.127 579.609 C 879.941 578.632 886.298 576.945 890.908 575.252 C 894.837 573.809 903.577 569.412 903.578 569.412 C 903.578 569.412 903.578 569.412 903.578 569.412 Z"/>
<path fill="#815629" fill-rule="evenodd" stroke="#815629" stroke-width="1" stroke-linecap="round" stroke-linejoin="round" d="M 380.261 579.697 C 380.261 579.697 380.261 579.697 380.261 579.697 C 387.971 582.986 397.835 588.599 405.960 590.662 C 425.155 595.537 452.645 599.967 471.831 595.053 C 475.790 594.039 483.160 592.643 483.834 588.612 C 484.137 586.799 482.089 584.357 480.467 583.489 C 474.433 580.259 464.767 586.821 457.925 587.002 C 449.669 587.221 438.674 585.569 430.551 584.075 C 419.866 582.108 405.923 577.992 395.567 574.706 C 392.671 573.788 388.699 572.749 386.031 571.295 C 386.031 571.295 385.928 573.355 385.609 574.165 C 385.255 575.063 384.419 576.091 383.768 576.803 C 382.847 577.810 380.262 579.696 380.261 579.697 C 380.261 579.697 380.261 579.697 380.261 579.697 Z"/>
<path fill="#815629" fill-rule="evenodd" stroke="#815629" stroke-width="1" stroke-linecap="round" stroke-linejoin="round" d="M 382.492 455.651 C 377.020 452.030 370.500 446.133 365.360 442.054 C 365.360 442.054 365.360 442.054 365.360 442.054 C 365.360 442.053 366.206 433.144 366.346 429.312 C 366.484 425.525 366.295 416.680 366.295 416.680 C 370.748 419.743 375.341 425.468 379.087 429.364 C 384.088 434.567 390.154 442.077 395.313 447.124 C 401.237 452.918 409.504 460.303 416.139 465.267 C 422.116 469.738 430.496 475.191 437.093 478.683 C 443.652 482.154 453.351 484.802 459.837 488.408 C 461.984 489.602 465.179 490.997 466.634 492.977 C 466.847 493.267 467.239 493.768 467.080 494.091 C 466.897 494.462 466.156 494.420 465.743 494.425 C 462.518 494.468 458.518 492.306 455.491 491.194 C 448.829 488.745 440.214 484.792 433.762 481.834 C 424.562 477.615 412.447 471.656 403.453 467.013 C 397.097 463.733 388.457 459.598 382.492 455.651 M 365.360 442.054 C 365.360 442.054 365.360 442.054 365.360 442.054 Z"/>
</g>
</g>
</svg>
